<svg xmlns="http://www.w3.org/2000/svg" xmlns:xlink="http://www.w3.org/1999/xlink" width="56" height="60" viewBox="0 0 56 60">
  <defs>
    <filter id="Path_4154" x="7.55" y="5.18" width="40.15" height="49.603" filterUnits="userSpaceOnUse">
      <feOffset input="SourceAlpha"/>
      <feGaussianBlur stdDeviation="2" result="blur"/>
      <feFlood flood-color="#424242" flood-opacity="0.161"/>
      <feComposite operator="in" in2="blur"/>
      <feComposite in="SourceGraphic"/>
    </filter>
    <clipPath id="clip-Javascript">
      <rect width="56" height="60"/>
    </clipPath>
  </defs>
  <g id="Javascript" clip-path="url(#clip-Javascript)">
    <g id="Group_3830" data-name="Group 3830" transform="translate(-227.359 -872.009)">
      <g transform="matrix(1, 0, 0, 1, 227.36, 872.01)" filter="url(#Path_4154)">
        <path id="Path_4154-2" data-name="Path 4154" d="M268.954,894.241c.152.189.094.413.094.623q0,10.366,0,20.732a4.9,4.9,0,0,1-5.181,5.193q-8.959,0-17.917,0a4.86,4.86,0,0,1-4.894-3.766,5.633,5.633,0,0,1-.141-1.4q-.012-13.626,0-27.251a4.9,4.9,0,0,1,5.189-5.186q5.845,0,11.69,0c.195,0,.39.018.585.028a1.645,1.645,0,0,1,.2,1.014q0,4.483,0,8.965c0,.823.023.845.861.846q4.249,0,8.5,0A1.563,1.563,0,0,1,268.954,894.241Z" transform="translate(-227.36 -872.01)" fill="#65cffc"/>
      </g>
      <path id="Path_4155" data-name="Path 4155" d="M400.08,894.467c-3.3,0-6.61-.016-9.915,0-.5,0-.666-.111-.663-.644.021-3.46,0-6.921,0-10.381.819.833,1.647,1.659,2.456,2.5q3.958,4.12,7.9,8.25C399.942,894.279,400.007,894.376,400.08,894.467Z" transform="translate(-131.126 -0.226)" fill="#69acfd"/>
      <path id="Path_4156" data-name="Path 4156" d="M356.456,1056.89a2.985,2.985,0,0,1-2.962-1.811c-.159-.423-.144-.714.383-.783a1.327,1.327,0,0,0,.282-.081c.485-.181.877-.328,1.138.391a1.22,1.22,0,0,0,1.558.585.6.6,0,0,0,.476-.53.571.571,0,0,0-.357-.615,13.422,13.422,0,0,0-1.27-.441,4.3,4.3,0,0,1-1.371-.642,2.07,2.07,0,0,1-.46-2.694,3.292,3.292,0,0,1,5.226.245c.219.4.214.637-.27.76a2.433,2.433,0,0,0-.541.222c-.414.223-.729.354-1-.252a1.107,1.107,0,0,0-1.44-.416c-.4.2-.439.573-.063.815a2.046,2.046,0,0,0,.543.2c.393.113.8.189,1.185.323a2.306,2.306,0,0,1,1.77,2.714,2.493,2.493,0,0,1-2.379,1.982C356.731,1056.882,356.555,1056.885,356.456,1056.89Z" transform="translate(-99.273 -146.405)" fill="#fefefe"/>
      <path id="Path_4157" data-name="Path 4157" d="M320.71,1052.894c0,.9.046,1.8-.011,2.7a2.253,2.253,0,0,1-2.943,1.877.282.282,0,0,1-.227-.294c0-.176.008-.353,0-.528-.031-.492-.1-.931.681-.881.539.034.727-.436.726-.945,0-1.467.014-2.934-.009-4.4-.007-.43.065-.616.563-.6,1.254.031,1.255,0,1.255,1.258v1.819Z" transform="translate(-67.598 -147.041)" fill="#fefefe"/>
    </g>
  </g>
</svg>
